<mxfile host="app.diagrams.net" modified="2023-10-16T15:31:17.763Z" agent="Mozilla/5.0 (Windows NT 10.0; Win64; x64) AppleWebKit/537.36 (KHTML, like Gecko) Chrome/117.0.0.0 Safari/537.36" etag="MFPwaWELS_BbR1N4Y-q4" version="22.0.4" type="github">
  <diagram name="Página-1" id="OS-vShhvKpMB2Uq_5CtL">
    <mxGraphModel dx="1434" dy="782" grid="1" gridSize="10" guides="1" tooltips="1" connect="1" arrows="1" fold="1" page="1" pageScale="1" pageWidth="827" pageHeight="1169" math="0" shadow="0">
      <root>
        <mxCell id="0" />
        <mxCell id="1" parent="0" />
        <mxCell id="Ldbrtm0ahJh7P3wSo-CR-1" value="Empresa" style="whiteSpace=wrap;html=1;align=center;rounded=0;" parent="1" vertex="1">
          <mxGeometry x="323" y="610" width="120" height="40" as="geometry" />
        </mxCell>
        <mxCell id="Ldbrtm0ahJh7P3wSo-CR-2" value="Proyecto" style="whiteSpace=wrap;html=1;align=center;rounded=0;" parent="1" vertex="1">
          <mxGeometry x="333" y="250" width="100" height="40" as="geometry" />
        </mxCell>
        <mxCell id="Ldbrtm0ahJh7P3wSo-CR-3" value="Trabajador" style="whiteSpace=wrap;html=1;align=center;rounded=0;" parent="1" vertex="1">
          <mxGeometry x="920" y="470" width="100" height="40" as="geometry" />
        </mxCell>
        <mxCell id="Ldbrtm0ahJh7P3wSo-CR-4" value="Profesion" style="whiteSpace=wrap;html=1;align=center;rounded=0;" parent="1" vertex="1">
          <mxGeometry x="1210" y="250" width="100" height="40" as="geometry" />
        </mxCell>
        <mxCell id="Ldbrtm0ahJh7P3wSo-CR-5" value="CIF" style="ellipse;whiteSpace=wrap;html=1;align=center;fontStyle=4;rounded=0;" parent="1" vertex="1">
          <mxGeometry x="443" y="770" width="100" height="40" as="geometry" />
        </mxCell>
        <mxCell id="Ldbrtm0ahJh7P3wSo-CR-6" value="Direccion" style="ellipse;whiteSpace=wrap;html=1;align=center;rounded=0;" parent="1" vertex="1">
          <mxGeometry x="540" y="680" width="100" height="40" as="geometry" />
        </mxCell>
        <mxCell id="Ldbrtm0ahJh7P3wSo-CR-7" value="Telefono" style="ellipse;whiteSpace=wrap;html=1;align=center;rounded=0;" parent="1" vertex="1">
          <mxGeometry x="133" y="670" width="100" height="40" as="geometry" />
        </mxCell>
        <mxCell id="Ldbrtm0ahJh7P3wSo-CR-8" value="Codigo_interno" style="ellipse;whiteSpace=wrap;html=1;align=center;rounded=0;" parent="1" vertex="1">
          <mxGeometry x="223" y="770" width="100" height="40" as="geometry" />
        </mxCell>
        <mxCell id="Ldbrtm0ahJh7P3wSo-CR-10" value="Fecha_inicio" style="ellipse;whiteSpace=wrap;html=1;align=center;rounded=0;" parent="1" vertex="1">
          <mxGeometry x="233" y="50" width="100" height="40" as="geometry" />
        </mxCell>
        <mxCell id="Ldbrtm0ahJh7P3wSo-CR-11" value="Fecha_final_prevista" style="ellipse;whiteSpace=wrap;html=1;align=center;rounded=0;" parent="1" vertex="1">
          <mxGeometry x="80" y="150" width="140" height="50" as="geometry" />
        </mxCell>
        <mxCell id="Ldbrtm0ahJh7P3wSo-CR-12" value="Fecha_final_real" style="ellipse;whiteSpace=wrap;html=1;align=center;rounded=0;" parent="1" vertex="1">
          <mxGeometry x="540" y="150" width="140" height="50" as="geometry" />
        </mxCell>
        <mxCell id="Ldbrtm0ahJh7P3wSo-CR-14" value="DNI" style="ellipse;whiteSpace=wrap;html=1;align=center;fontStyle=4;rounded=0;" parent="1" vertex="1">
          <mxGeometry x="1020" y="610" width="100" height="40" as="geometry" />
        </mxCell>
        <mxCell id="Ldbrtm0ahJh7P3wSo-CR-15" value="Codigo_trabajador" style="ellipse;whiteSpace=wrap;html=1;align=center;rounded=0;" parent="1" vertex="1">
          <mxGeometry x="820" y="610" width="100" height="40" as="geometry" />
        </mxCell>
        <mxCell id="Ldbrtm0ahJh7P3wSo-CR-16" value="Nombre" style="ellipse;whiteSpace=wrap;html=1;align=center;rounded=0;" parent="1" vertex="1">
          <mxGeometry x="1100" y="530" width="100" height="40" as="geometry" />
        </mxCell>
        <mxCell id="Ldbrtm0ahJh7P3wSo-CR-17" value="Apellidos" style="ellipse;whiteSpace=wrap;html=1;align=center;rounded=0;" parent="1" vertex="1">
          <mxGeometry x="760" y="530" width="100" height="40" as="geometry" />
        </mxCell>
        <mxCell id="Ldbrtm0ahJh7P3wSo-CR-20" value="ID" style="ellipse;whiteSpace=wrap;html=1;align=center;fontStyle=4;rounded=0;" parent="1" vertex="1">
          <mxGeometry x="433" y="50" width="100" height="40" as="geometry" />
        </mxCell>
        <mxCell id="Ldbrtm0ahJh7P3wSo-CR-21" value="Codigo" style="ellipse;whiteSpace=wrap;html=1;align=center;fontStyle=4;rounded=0;" parent="1" vertex="1">
          <mxGeometry x="1210" y="120" width="100" height="40" as="geometry" />
        </mxCell>
        <mxCell id="Ldbrtm0ahJh7P3wSo-CR-22" value="Nombre" style="ellipse;whiteSpace=wrap;html=1;align=center;rounded=0;" parent="1" vertex="1">
          <mxGeometry x="1340" y="190" width="100" height="40" as="geometry" />
        </mxCell>
        <mxCell id="Ldbrtm0ahJh7P3wSo-CR-23" value="Solicitar" style="shape=rhombus;perimeter=rhombusPerimeter;whiteSpace=wrap;html=1;align=center;rounded=0;" parent="1" vertex="1">
          <mxGeometry x="323" y="420" width="120" height="60" as="geometry" />
        </mxCell>
        <mxCell id="Ldbrtm0ahJh7P3wSo-CR-24" value="" style="endArrow=none;html=1;rounded=0;exitX=0.5;exitY=0;exitDx=0;exitDy=0;entryX=0.5;entryY=1;entryDx=0;entryDy=0;" parent="1" source="Ldbrtm0ahJh7P3wSo-CR-40" target="Ldbrtm0ahJh7P3wSo-CR-23" edge="1">
          <mxGeometry relative="1" as="geometry">
            <mxPoint x="510" y="490" as="sourcePoint" />
            <mxPoint x="670" y="490" as="targetPoint" />
          </mxGeometry>
        </mxCell>
        <mxCell id="Ldbrtm0ahJh7P3wSo-CR-25" value="" style="endArrow=none;html=1;rounded=0;exitX=0.5;exitY=0;exitDx=0;exitDy=0;entryX=0.5;entryY=1;entryDx=0;entryDy=0;" parent="1" source="Ldbrtm0ahJh7P3wSo-CR-39" target="Ldbrtm0ahJh7P3wSo-CR-2" edge="1">
          <mxGeometry relative="1" as="geometry">
            <mxPoint x="393" y="620" as="sourcePoint" />
            <mxPoint x="393" y="490" as="targetPoint" />
          </mxGeometry>
        </mxCell>
        <mxCell id="Ldbrtm0ahJh7P3wSo-CR-26" value="" style="endArrow=none;html=1;rounded=0;exitX=0.5;exitY=0;exitDx=0;exitDy=0;entryX=0.75;entryY=1;entryDx=0;entryDy=0;" parent="1" source="Ldbrtm0ahJh7P3wSo-CR-5" target="Ldbrtm0ahJh7P3wSo-CR-1" edge="1">
          <mxGeometry relative="1" as="geometry">
            <mxPoint x="510" y="490" as="sourcePoint" />
            <mxPoint x="670" y="490" as="targetPoint" />
          </mxGeometry>
        </mxCell>
        <mxCell id="Ldbrtm0ahJh7P3wSo-CR-27" value="" style="endArrow=none;html=1;rounded=0;exitX=1;exitY=0.5;exitDx=0;exitDy=0;entryX=0;entryY=0.5;entryDx=0;entryDy=0;" parent="1" source="Ldbrtm0ahJh7P3wSo-CR-1" target="Ldbrtm0ahJh7P3wSo-CR-6" edge="1">
          <mxGeometry relative="1" as="geometry">
            <mxPoint x="510" y="490" as="sourcePoint" />
            <mxPoint x="670" y="490" as="targetPoint" />
          </mxGeometry>
        </mxCell>
        <mxCell id="Ldbrtm0ahJh7P3wSo-CR-28" value="" style="endArrow=none;html=1;rounded=0;exitX=1;exitY=0.5;exitDx=0;exitDy=0;entryX=0;entryY=0.5;entryDx=0;entryDy=0;" parent="1" source="Ldbrtm0ahJh7P3wSo-CR-7" target="Ldbrtm0ahJh7P3wSo-CR-1" edge="1">
          <mxGeometry relative="1" as="geometry">
            <mxPoint x="510" y="490" as="sourcePoint" />
            <mxPoint x="670" y="490" as="targetPoint" />
          </mxGeometry>
        </mxCell>
        <mxCell id="Ldbrtm0ahJh7P3wSo-CR-29" value="" style="endArrow=none;html=1;rounded=0;exitX=0.5;exitY=0;exitDx=0;exitDy=0;entryX=0.25;entryY=1;entryDx=0;entryDy=0;" parent="1" source="Ldbrtm0ahJh7P3wSo-CR-8" target="Ldbrtm0ahJh7P3wSo-CR-1" edge="1">
          <mxGeometry relative="1" as="geometry">
            <mxPoint x="510" y="490" as="sourcePoint" />
            <mxPoint x="670" y="490" as="targetPoint" />
          </mxGeometry>
        </mxCell>
        <mxCell id="Ldbrtm0ahJh7P3wSo-CR-30" value="" style="endArrow=none;html=1;rounded=0;exitX=1;exitY=0;exitDx=0;exitDy=0;entryX=0;entryY=0.5;entryDx=0;entryDy=0;" parent="1" source="Ldbrtm0ahJh7P3wSo-CR-2" target="Ldbrtm0ahJh7P3wSo-CR-12" edge="1">
          <mxGeometry relative="1" as="geometry">
            <mxPoint x="510" y="190" as="sourcePoint" />
            <mxPoint x="670" y="190" as="targetPoint" />
          </mxGeometry>
        </mxCell>
        <mxCell id="Ldbrtm0ahJh7P3wSo-CR-31" value="" style="endArrow=none;html=1;rounded=0;entryX=0;entryY=0.5;entryDx=0;entryDy=0;exitX=0.75;exitY=0;exitDx=0;exitDy=0;" parent="1" source="Ldbrtm0ahJh7P3wSo-CR-2" target="Ldbrtm0ahJh7P3wSo-CR-20" edge="1">
          <mxGeometry relative="1" as="geometry">
            <mxPoint x="510" y="190" as="sourcePoint" />
            <mxPoint x="670" y="190" as="targetPoint" />
          </mxGeometry>
        </mxCell>
        <mxCell id="Ldbrtm0ahJh7P3wSo-CR-33" value="" style="endArrow=none;html=1;rounded=0;exitX=0.5;exitY=1;exitDx=0;exitDy=0;entryX=0.25;entryY=0;entryDx=0;entryDy=0;" parent="1" source="Ldbrtm0ahJh7P3wSo-CR-10" target="Ldbrtm0ahJh7P3wSo-CR-2" edge="1">
          <mxGeometry relative="1" as="geometry">
            <mxPoint x="510" y="190" as="sourcePoint" />
            <mxPoint x="670" y="190" as="targetPoint" />
          </mxGeometry>
        </mxCell>
        <mxCell id="Ldbrtm0ahJh7P3wSo-CR-34" value="" style="endArrow=none;html=1;rounded=0;exitX=1;exitY=0.5;exitDx=0;exitDy=0;entryX=0;entryY=0;entryDx=0;entryDy=0;" parent="1" source="Ldbrtm0ahJh7P3wSo-CR-11" target="Ldbrtm0ahJh7P3wSo-CR-2" edge="1">
          <mxGeometry relative="1" as="geometry">
            <mxPoint x="510" y="190" as="sourcePoint" />
            <mxPoint x="670" y="190" as="targetPoint" />
          </mxGeometry>
        </mxCell>
        <mxCell id="Ldbrtm0ahJh7P3wSo-CR-41" value="Desempeñar" style="shape=rhombus;perimeter=rhombusPerimeter;whiteSpace=wrap;html=1;align=center;rounded=0;" parent="1" vertex="1">
          <mxGeometry x="910" y="240" width="120" height="60" as="geometry" />
        </mxCell>
        <mxCell id="Ldbrtm0ahJh7P3wSo-CR-42" value="" style="endArrow=none;html=1;rounded=0;exitX=1;exitY=0.5;exitDx=0;exitDy=0;entryX=0;entryY=0.5;entryDx=0;entryDy=0;" parent="1" source="Ldbrtm0ahJh7P3wSo-CR-51" target="Ldbrtm0ahJh7P3wSo-CR-41" edge="1">
          <mxGeometry relative="1" as="geometry">
            <mxPoint x="510" y="390" as="sourcePoint" />
            <mxPoint x="670" y="390" as="targetPoint" />
          </mxGeometry>
        </mxCell>
        <mxCell id="Ldbrtm0ahJh7P3wSo-CR-43" value="" style="endArrow=none;html=1;rounded=0;entryX=0;entryY=0.5;entryDx=0;entryDy=0;exitX=1;exitY=0.5;exitDx=0;exitDy=0;" parent="1" source="Ldbrtm0ahJh7P3wSo-CR-52" target="Ldbrtm0ahJh7P3wSo-CR-4" edge="1">
          <mxGeometry relative="1" as="geometry">
            <mxPoint x="670" y="390" as="sourcePoint" />
            <mxPoint x="830" y="390" as="targetPoint" />
          </mxGeometry>
        </mxCell>
        <mxCell id="Ldbrtm0ahJh7P3wSo-CR-45" value="" style="endArrow=none;html=1;rounded=0;entryX=0.5;entryY=0;entryDx=0;entryDy=0;exitX=0.5;exitY=1;exitDx=0;exitDy=0;" parent="1" source="Ldbrtm0ahJh7P3wSo-CR-54" target="Ldbrtm0ahJh7P3wSo-CR-3" edge="1">
          <mxGeometry relative="1" as="geometry">
            <mxPoint x="670" y="390" as="sourcePoint" />
            <mxPoint x="830" y="390" as="targetPoint" />
          </mxGeometry>
        </mxCell>
        <mxCell id="Ldbrtm0ahJh7P3wSo-CR-46" value="" style="endArrow=none;html=1;rounded=0;exitX=0.5;exitY=1;exitDx=0;exitDy=0;entryX=0.5;entryY=0;entryDx=0;entryDy=0;" parent="1" source="Ldbrtm0ahJh7P3wSo-CR-21" target="Ldbrtm0ahJh7P3wSo-CR-4" edge="1">
          <mxGeometry relative="1" as="geometry">
            <mxPoint x="670" y="390" as="sourcePoint" />
            <mxPoint x="830" y="390" as="targetPoint" />
          </mxGeometry>
        </mxCell>
        <mxCell id="Ldbrtm0ahJh7P3wSo-CR-48" value="" style="endArrow=none;html=1;rounded=0;entryX=0;entryY=0.5;entryDx=0;entryDy=0;exitX=1;exitY=0;exitDx=0;exitDy=0;" parent="1" source="Ldbrtm0ahJh7P3wSo-CR-4" target="Ldbrtm0ahJh7P3wSo-CR-22" edge="1">
          <mxGeometry relative="1" as="geometry">
            <mxPoint x="670" y="390" as="sourcePoint" />
            <mxPoint x="830" y="390" as="targetPoint" />
          </mxGeometry>
        </mxCell>
        <mxCell id="Ldbrtm0ahJh7P3wSo-CR-49" value="" style="endArrow=none;html=1;rounded=0;exitX=0.5;exitY=0;exitDx=0;exitDy=0;entryX=0.5;entryY=1;entryDx=0;entryDy=0;" parent="1" source="Ldbrtm0ahJh7P3wSo-CR-1" target="Ldbrtm0ahJh7P3wSo-CR-40" edge="1">
          <mxGeometry relative="1" as="geometry">
            <mxPoint x="383" y="610" as="sourcePoint" />
            <mxPoint x="383" y="480" as="targetPoint" />
          </mxGeometry>
        </mxCell>
        <mxCell id="Ldbrtm0ahJh7P3wSo-CR-40" value="1, 1" style="text;strokeColor=none;fillColor=none;spacingLeft=4;spacingRight=4;overflow=hidden;rotatable=0;points=[[0,0.5],[1,0.5]];portConstraint=eastwest;fontSize=12;whiteSpace=wrap;html=1;rounded=0;" parent="1" vertex="1">
          <mxGeometry x="363" y="565" width="40" height="30" as="geometry" />
        </mxCell>
        <mxCell id="Ldbrtm0ahJh7P3wSo-CR-50" value="" style="endArrow=none;html=1;rounded=0;exitX=0.5;exitY=0;exitDx=0;exitDy=0;entryX=0.5;entryY=1;entryDx=0;entryDy=0;" parent="1" source="Ldbrtm0ahJh7P3wSo-CR-23" target="Ldbrtm0ahJh7P3wSo-CR-39" edge="1">
          <mxGeometry relative="1" as="geometry">
            <mxPoint x="383" y="420" as="sourcePoint" />
            <mxPoint x="383" y="290" as="targetPoint" />
          </mxGeometry>
        </mxCell>
        <mxCell id="Ldbrtm0ahJh7P3wSo-CR-39" value="1, N" style="text;strokeColor=none;fillColor=none;spacingLeft=4;spacingRight=4;overflow=hidden;rotatable=0;points=[[0,0.5],[1,0.5]];portConstraint=eastwest;fontSize=12;whiteSpace=wrap;html=1;rounded=0;" parent="1" vertex="1">
          <mxGeometry x="363" y="310" width="40" height="30" as="geometry" />
        </mxCell>
        <mxCell id="Ldbrtm0ahJh7P3wSo-CR-53" value="" style="endArrow=none;html=1;rounded=0;entryX=0;entryY=0.5;entryDx=0;entryDy=0;exitX=1;exitY=0.5;exitDx=0;exitDy=0;" parent="1" source="Ldbrtm0ahJh7P3wSo-CR-41" target="Ldbrtm0ahJh7P3wSo-CR-52" edge="1">
          <mxGeometry relative="1" as="geometry">
            <mxPoint x="1030" y="270" as="sourcePoint" />
            <mxPoint x="1210" y="270" as="targetPoint" />
          </mxGeometry>
        </mxCell>
        <mxCell id="Ldbrtm0ahJh7P3wSo-CR-52" value="1, N" style="text;strokeColor=none;fillColor=none;spacingLeft=4;spacingRight=4;overflow=hidden;rotatable=0;points=[[0,0.5],[1,0.5]];portConstraint=eastwest;fontSize=12;whiteSpace=wrap;html=1;rounded=0;" parent="1" vertex="1">
          <mxGeometry x="1140" y="255" width="40" height="30" as="geometry" />
        </mxCell>
        <mxCell id="Ldbrtm0ahJh7P3wSo-CR-55" value="" style="endArrow=none;html=1;rounded=0;entryX=0.5;entryY=0;entryDx=0;entryDy=0;exitX=0.5;exitY=1;exitDx=0;exitDy=0;" parent="1" source="Ldbrtm0ahJh7P3wSo-CR-41" target="Ldbrtm0ahJh7P3wSo-CR-54" edge="1">
          <mxGeometry relative="1" as="geometry">
            <mxPoint x="970" y="300" as="sourcePoint" />
            <mxPoint x="970" y="470" as="targetPoint" />
          </mxGeometry>
        </mxCell>
        <mxCell id="Ldbrtm0ahJh7P3wSo-CR-54" value="1, N" style="text;strokeColor=none;fillColor=none;spacingLeft=4;spacingRight=4;overflow=hidden;rotatable=0;points=[[0,0.5],[1,0.5]];portConstraint=eastwest;fontSize=12;whiteSpace=wrap;html=1;rounded=0;" parent="1" vertex="1">
          <mxGeometry x="950" y="420" width="40" height="30" as="geometry" />
        </mxCell>
        <mxCell id="Ldbrtm0ahJh7P3wSo-CR-56" value="" style="endArrow=none;html=1;rounded=0;exitX=1;exitY=0.5;exitDx=0;exitDy=0;entryX=0;entryY=0.5;entryDx=0;entryDy=0;" parent="1" source="Ldbrtm0ahJh7P3wSo-CR-2" target="Ldbrtm0ahJh7P3wSo-CR-51" edge="1">
          <mxGeometry relative="1" as="geometry">
            <mxPoint x="433" y="270" as="sourcePoint" />
            <mxPoint x="750" y="270" as="targetPoint" />
          </mxGeometry>
        </mxCell>
        <mxCell id="Ldbrtm0ahJh7P3wSo-CR-51" value="1, N" style="text;strokeColor=none;fillColor=none;spacingLeft=4;spacingRight=4;overflow=hidden;rotatable=0;points=[[0,0.5],[1,0.5]];portConstraint=eastwest;fontSize=12;whiteSpace=wrap;html=1;rounded=0;" parent="1" vertex="1">
          <mxGeometry x="463" y="255" width="40" height="30" as="geometry" />
        </mxCell>
        <mxCell id="Ldbrtm0ahJh7P3wSo-CR-57" value="" style="endArrow=none;html=1;rounded=0;entryX=0;entryY=0.5;entryDx=0;entryDy=0;exitX=0.5;exitY=0;exitDx=0;exitDy=0;" parent="1" source="Ldbrtm0ahJh7P3wSo-CR-17" target="Ldbrtm0ahJh7P3wSo-CR-3" edge="1">
          <mxGeometry relative="1" as="geometry">
            <mxPoint x="590" y="590" as="sourcePoint" />
            <mxPoint x="750" y="590" as="targetPoint" />
          </mxGeometry>
        </mxCell>
        <mxCell id="Ldbrtm0ahJh7P3wSo-CR-58" value="" style="endArrow=none;html=1;rounded=0;entryX=0.25;entryY=1;entryDx=0;entryDy=0;exitX=0.5;exitY=0;exitDx=0;exitDy=0;" parent="1" source="Ldbrtm0ahJh7P3wSo-CR-15" target="Ldbrtm0ahJh7P3wSo-CR-3" edge="1">
          <mxGeometry relative="1" as="geometry">
            <mxPoint x="590" y="390" as="sourcePoint" />
            <mxPoint x="750" y="390" as="targetPoint" />
          </mxGeometry>
        </mxCell>
        <mxCell id="Ldbrtm0ahJh7P3wSo-CR-59" value="" style="endArrow=none;html=1;rounded=0;entryX=0.75;entryY=1;entryDx=0;entryDy=0;exitX=0.5;exitY=0;exitDx=0;exitDy=0;" parent="1" source="Ldbrtm0ahJh7P3wSo-CR-14" target="Ldbrtm0ahJh7P3wSo-CR-3" edge="1">
          <mxGeometry relative="1" as="geometry">
            <mxPoint x="880" y="620" as="sourcePoint" />
            <mxPoint x="955" y="520" as="targetPoint" />
          </mxGeometry>
        </mxCell>
        <mxCell id="Ldbrtm0ahJh7P3wSo-CR-60" value="" style="endArrow=none;html=1;rounded=0;entryX=1;entryY=0.5;entryDx=0;entryDy=0;exitX=0.5;exitY=0;exitDx=0;exitDy=0;" parent="1" source="Ldbrtm0ahJh7P3wSo-CR-16" target="Ldbrtm0ahJh7P3wSo-CR-3" edge="1">
          <mxGeometry relative="1" as="geometry">
            <mxPoint x="1080" y="620" as="sourcePoint" />
            <mxPoint x="1005" y="520" as="targetPoint" />
          </mxGeometry>
        </mxCell>
        <mxCell id="Ldbrtm0ahJh7P3wSo-CR-61" value="Horas_trabajadas" style="ellipse;whiteSpace=wrap;html=1;align=center;rounded=0;" parent="1" vertex="1">
          <mxGeometry x="920" y="90" width="100" height="40" as="geometry" />
        </mxCell>
        <mxCell id="Ldbrtm0ahJh7P3wSo-CR-62" value="" style="endArrow=none;html=1;rounded=0;exitX=0.5;exitY=1;exitDx=0;exitDy=0;entryX=0.5;entryY=0;entryDx=0;entryDy=0;" parent="1" source="Ldbrtm0ahJh7P3wSo-CR-61" target="Ldbrtm0ahJh7P3wSo-CR-41" edge="1">
          <mxGeometry relative="1" as="geometry">
            <mxPoint x="590" y="390" as="sourcePoint" />
            <mxPoint x="750" y="390" as="targetPoint" />
          </mxGeometry>
        </mxCell>
        <mxCell id="wWlhVUCMnUTc1HB2ck-X-3" value="&lt;h1 style=&quot;font-size: 13px;&quot;&gt;&lt;font style=&quot;font-size: 13px;&quot;&gt;Empresa &lt;span style=&quot;font-weight: normal;&quot;&gt;(&lt;/span&gt;&lt;u style=&quot;&quot;&gt;CIF&lt;/u&gt;: String,&amp;nbsp; &lt;span style=&quot;font-weight: normal;&quot;&gt;Direccion: String, Telefono: String, Codigo_interno: Sting)&lt;/span&gt;&lt;/font&gt;&lt;/h1&gt;&lt;h1 style=&quot;line-height: 120%; font-size: 13px;&quot;&gt;&lt;font style=&quot;font-size: 13px;&quot;&gt;Proyecto &lt;span style=&quot;font-weight: normal;&quot;&gt;(&lt;/span&gt;&lt;u&gt;ID&lt;/u&gt;: String, &lt;span style=&quot;font-weight: normal;&quot;&gt;Fecha_Incio: Date, Fecha_final_prevista: Date, Fecha_final_real: Date,&amp;nbsp;&lt;/span&gt;&lt;span style=&quot;font-weight: normal;&quot;&gt;&lt;i&gt;CIF_FK&lt;/i&gt;&lt;/span&gt;&lt;span style=&quot;font-weight: normal;&quot;&gt;: &lt;i&gt;String&lt;/i&gt;)&amp;nbsp;&amp;nbsp;&lt;/span&gt;&lt;/font&gt;&lt;/h1&gt;&lt;h1 style=&quot;line-height: 120%; font-size: 13px;&quot;&gt;Trabajador &lt;span style=&quot;font-weight: normal;&quot;&gt;(&lt;/span&gt;&lt;u style=&quot;font-weight: normal;&quot;&gt;DNI&lt;/u&gt;&lt;span style=&quot;font-weight: normal;&quot;&gt;: String&lt;/span&gt;&lt;span style=&quot;font-weight: normal;&quot;&gt;, Codigo_trabajador: String , Nombre: String, Apellido: String )&lt;/span&gt;&lt;/h1&gt;&lt;h1 style=&quot;line-height: 120%; font-size: 13px;&quot;&gt;Profesion &lt;span style=&quot;font-weight: normal;&quot;&gt;(&lt;/span&gt;&lt;u style=&quot;font-weight: normal;&quot;&gt;Codigo&lt;/u&gt;&lt;span style=&quot;font-weight: normal;&quot;&gt;: String&lt;/span&gt;&lt;span style=&quot;font-weight: normal;&quot;&gt;, Nombre: String )&lt;/span&gt;&lt;/h1&gt;&lt;h1 style=&quot;font-size: 13px;&quot;&gt;&lt;font style=&quot;font-size: 13px;&quot;&gt;Desempeñar &lt;span style=&quot;font-weight: normal;&quot;&gt;(&lt;/span&gt;&lt;u style=&quot;&quot;&gt;DNI_Trabajador&lt;/u&gt;: String, &lt;u style=&quot;&quot;&gt;Codigo_Profesion&lt;/u&gt;: String, &lt;u style=&quot;&quot;&gt;ID_Proyecto&lt;/u&gt;: String, &lt;span style=&quot;font-weight: normal;&quot;&gt;Horas_trabajadas: Double)&amp;nbsp;&lt;/span&gt;&lt;/font&gt;&lt;/h1&gt;" style="text;html=1;strokeColor=none;fillColor=none;spacing=5;spacingTop=0;whiteSpace=wrap;overflow=hidden;rounded=0;labelBackgroundColor=#dbdbdb;verticalAlign=middle;align=left;spacingBottom=0;dashed=1;" vertex="1" parent="1">
          <mxGeometry x="670" y="710" width="700" height="160" as="geometry" />
        </mxCell>
      </root>
    </mxGraphModel>
  </diagram>
</mxfile>
